<svg xmlns="http://www.w3.org/2000/svg" viewBox="668 58 432 350">
  <path fill="#1d1d1b" d="M734.28,322.67l-.31-.05c-17.79-2.71-33.39-11.53-40.7-23.01-4.88-7.66-5.03-15.92-3.33-25.25,1.93-10.62,11.15-22.93,24.29-29,15.69-7.24,55.91-25.26,135.63,8.19l18.87,37.13c-49.46,27.32-94.55,38.08-134.45,31.98M1039.6,67.36h0s0,0,0,0c-.3,1.27-31.03,128.34-129.73,197.5-2.31,1.62-4.61,3.2-6.9,4.75-9.44-16.97-104.3-202.25-104.3-202.25l-28.79,28.8,75.7,148.96c-25.53-9.52-49.62-15.22-71.84-16.95-24.87-1.93-47.15,1.26-64.43,9.24-16.67,7.7-28.07,19.5-32.09,33.22-3.74,12.75-2.05,25.23,4.88,36.1,9.45,14.83,28.1,25.68,49.89,29l.31.05c4.86.74,13.26,2.02,24.9,2.02,9.88,0,22.09-.92,36.46-3.88,38.31-7.88,79.97-27.46,123.84-58.2,4.19-2.94,8.25-5.98,12.2-9.1l35.74,70.44h42.99l-48.94-97.54c30.23-31.5,51.16-66.49,64.58-93.8,6.37-12.96,11.5-25.03,15.56-35.54v226.88h40.21V67.36h-40.21Z"/>
  <path fill="#1d1d1b" d="M945.48,212.92l-73.67-145.56h-41.95l87.16,173.59c20.11-16.64,28.45-28.03,28.45-28.03"/>
  <path fill="#1d1d1b" d="M880.98,316.42l9.9,20.65h44.03l-20.51-41.52s-16.78,12.9-33.42,20.87"/>
  <path fill="#1d1d1b" d="M690.81,369.72l6.02,17.02h-12.04l6.02-17.02ZM688.34,365.04l-13.07,34.53h4.98l3.26-8.93h14.6l3.26,8.93h4.98l-13.07-34.53h-4.93Z"/>
  <polygon fill="#1d1d1b" points="717.46 370.56 717.36 370.56 717.46 371.89 717.46 399.57 712.82 399.57 712.82 365.04 719.77 365.04 730.58 393.45 741.38 365.04 748.34 365.04 748.34 399.57 743.7 399.57 743.7 371.89 743.8 370.56 743.65 370.56 732.45 399.57 728.7 399.57 717.46 370.56"/>
  <path fill="#1d1d1b" d="M777.8,381.91h8.49c5.53,0,7.89-2.32,7.89-6.86,0-4.29-2.56-6.12-7.89-6.12h-8.49v12.97ZM787.22,365.04c7.05,0,11.69,2.76,11.69,9.92,0,6.46-3.21,10.85-12.14,10.85h-8.98v13.76h-4.64v-34.53h14.06Z"/>
  <path fill="#1d1d1b" d="M811.15,365.04v20.57c0,4.24.3,11.1,8.98,11.1,6.86,0,8.98-3.85,8.98-11.1v-20.57h4.64v21.16c0,14.06-9.87,14.41-13.62,14.41-12.63,0-13.62-8.49-13.62-14.41v-21.16h4.64Z"/>
  <path fill="#1d1d1b" d="M848.6,395.67h9.62c3.21,0,7.94-.49,7.94-6.12,0-4.44-3.11-5.97-7.94-5.97h-9.62v12.09ZM848.6,379.69h9.32c5.08,0,6.76-2.52,6.76-5.38,0-1.97-.84-5.38-6.61-5.38h-9.47v10.75ZM859.11,365.04c8.39,0,10.31,4.74,10.31,8.78,0,3.7-2.52,6.91-5.77,7.4v.15c2.86.49,7.25,2.42,7.25,8.58,0,4.93-2.52,9.62-12.33,9.62h-14.6v-34.53h15.15Z"/>
  <polygon fill="#1d1d1b" points="902.63 399.57 880.43 399.57 880.43 365.04 885.06 365.04 885.06 395.67 902.63 395.67 902.63 399.57"/>
  <rect fill="#1d1d1b" x="908.99" y="365.04" width="4.64" height="34.53"/>
  <path fill="#1d1d1b" d="M927.15,388.62c-.15,4.59,3.55,8.09,9.87,8.09s8.48-3.11,8.48-6.41c0-4.24-3.75-5.38-6.96-6.07-7.89-1.73-14.85-2.37-14.85-10.31,0-6.51,5.28-9.91,13.07-9.91,8.54,0,12.38,4.68,12.78,10.01h-4.64c-.64-5.72-6.07-6.12-8.29-6.12-4.79,0-7.99,2.22-7.99,5.77,0,4.19,4.1,4.88,8.63,5.77,6.17,1.18,13.17,2.47,13.17,10.76,0,10.31-10.8,10.41-13.67,10.41-4.93,0-13.71-1.09-14.26-11.99h4.64Z"/>
  <polygon fill="#1d1d1b" points="963.96 399.57 959.32 399.57 959.32 365.04 963.96 365.04 963.96 379.44 981.32 379.44 981.32 365.04 985.96 365.04 985.96 399.57 981.32 399.57 981.32 383.34 963.96 383.34 963.96 399.57"/>
  <rect fill="#1d1d1b" x="996.82" y="365.04" width="4.64" height="34.53"/>
  <polygon fill="#1d1d1b" points="1016.95 399.57 1012.31 399.57 1012.31 365.04 1017.44 365.04 1035.79 392.42 1035.79 365.04 1040.43 365.04 1040.43 399.57 1035.35 399.57 1016.95 372.19 1016.95 399.57"/>
  <path fill="#1d1d1b" d="M1080.74,381.56v18.01h-3.6v-5.57h-.1c-1.97,4.14-6.02,6.61-11.5,6.61-8.24,0-16.23-4.78-16.23-18.65,0-11.69,6.61-17.96,16.87-17.96,9.23,0,13.42,5.57,14.06,11.25h-4.64c-.25-3.16-2.37-7.35-9.52-7.35-10.9,0-11.84,10.51-11.84,14.21,0,2.52.74,14.6,11.79,14.6,8.49,0,10.46-7,10.46-11.25h-9.87v-3.9h14.11Z"/>
</svg>
